<svg xmlns="http://www.w3.org/2000/svg" viewBox="0 0 1024 1024">
  <rect width="1024" height="1024" rx="230" fill="#052e16"/>
  <!-- Arc / crescent swoosh -->
  <path d="M 148 484 C 258 44 658 72 822 402 C 682 222 342 242 166 522 C 156 504 150 493 148 484 Z" fill="#22c55e"/>
  <!-- Small leaf -->
  <path d="M 268 520 C 328 545 328 835 268 855 C 208 835 208 545 268 520 Z" fill="#22c55e"/>
  <!-- Medium leaf -->
  <path d="M 448 440 C 525 468 525 830 448 855 C 371 830 371 468 448 440 Z" fill="#22c55e"/>
  <!-- Large leaf -->
  <path d="M 664 350 C 762 383 762 822 664 855 C 566 822 566 383 664 350 Z" fill="#22c55e"/>
</svg>
